<svg width="174" height="43" viewBox="0 0 174 43" fill="none" xmlns="http://www.w3.org/2000/svg">
<path d="M63.016 35V9.08H68.648C70.568 9.08 72.0827 9.37866 73.192 9.976C74.3227 10.552 75.1227 11.4267 75.592 12.6C76.0827 13.7733 76.328 15.2347 76.328 16.984V26.52C76.328 28.3547 76.0827 29.9013 75.592 31.16C75.1227 32.4187 74.344 33.3787 73.256 34.04C72.1893 34.68 70.7493 35 68.936 35H63.016ZM66.632 32.408H68.68C70.0027 32.408 70.9413 32.152 71.496 31.64C72.0507 31.128 72.3813 30.3813 72.488 29.4C72.616 28.4187 72.68 27.2347 72.68 25.848V17.432C72.68 16.088 72.5947 15 72.424 14.168C72.2533 13.336 71.88 12.728 71.304 12.344C70.728 11.96 69.8213 11.768 68.584 11.768H66.632V32.408ZM86.579 35.288C84.7017 35.288 83.2617 34.9147 82.259 34.168C81.2563 33.4213 80.5737 32.376 80.211 31.032C79.8483 29.6667 79.667 28.0773 79.667 26.264V9.08H83.123V26.424C83.123 27.5333 83.1977 28.5467 83.347 29.464C83.4963 30.3813 83.8163 31.1067 84.307 31.64C84.819 32.1733 85.5763 32.44 86.579 32.44C87.603 32.44 88.3603 32.1733 88.851 31.64C89.3417 31.1067 89.6617 30.3813 89.811 29.464C89.9603 28.5467 90.035 27.5333 90.035 26.424V9.08H93.459V26.264C93.459 28.0773 93.2777 29.6667 92.915 31.032C92.5523 32.376 91.8697 33.4213 90.867 34.168C89.8857 34.9147 88.4563 35.288 86.579 35.288ZM103.89 35.288C102.141 35.288 100.743 34.9467 99.698 34.264C98.6527 33.5813 97.906 32.6107 97.458 31.352C97.01 30.072 96.786 28.5787 96.786 26.872V17.048C96.786 15.3413 97.01 13.88 97.458 12.664C97.9273 11.4267 98.674 10.488 99.698 9.848C100.743 9.18667 102.141 8.856 103.89 8.856C105.639 8.856 107.026 9.18667 108.05 9.848C109.074 10.5093 109.81 11.448 110.258 12.664C110.727 13.88 110.962 15.3413 110.962 17.048V26.904C110.962 28.5893 110.727 30.0613 110.258 31.32C109.81 32.5787 109.074 33.56 108.05 34.264C107.026 34.9467 105.639 35.288 103.89 35.288ZM103.89 32.44C104.85 32.44 105.575 32.248 106.066 31.864C106.557 31.4587 106.887 30.904 107.058 30.2C107.229 29.4747 107.314 28.632 107.314 27.672V16.312C107.314 15.352 107.229 14.5307 107.058 13.848C106.887 13.144 106.557 12.6107 106.066 12.248C105.575 11.864 104.85 11.672 103.89 11.672C102.93 11.672 102.194 11.864 101.682 12.248C101.191 12.6107 100.861 13.144 100.69 13.848C100.519 14.5307 100.434 15.352 100.434 16.312V27.672C100.434 28.632 100.519 29.4747 100.69 30.2C100.861 30.904 101.191 31.4587 101.682 31.864C102.194 32.248 102.93 32.44 103.89 32.44ZM117.364 35V11.768H112.98V9.08H125.236V11.768H120.98V35H117.364ZM127.735 35V9.08H137.783V11.768H131.351V20.344H136.567V22.904H131.351V32.408H137.847V35H127.735ZM147.262 35.288C145.427 35.288 143.998 34.904 142.974 34.136C141.971 33.368 141.267 32.3333 140.862 31.032C140.478 29.7307 140.286 28.28 140.286 26.68V17.528C140.286 15.7787 140.478 14.2533 140.862 12.952C141.267 11.6507 141.971 10.648 142.974 9.944C143.998 9.21867 145.427 8.856 147.262 8.856C148.883 8.856 150.163 9.15467 151.102 9.752C152.062 10.3493 152.745 11.2027 153.15 12.312C153.577 13.4213 153.79 14.7547 153.79 16.312V18.36H150.366V16.536C150.366 15.576 150.313 14.7333 150.206 14.008C150.121 13.2613 149.865 12.6853 149.438 12.28C149.011 11.8747 148.297 11.672 147.294 11.672C146.27 11.672 145.523 11.896 145.054 12.344C144.585 12.7707 144.275 13.3893 144.126 14.2C143.998 14.9893 143.934 15.9173 143.934 16.984V27.256C143.934 28.5573 144.041 29.592 144.254 30.36C144.467 31.1067 144.819 31.64 145.31 31.96C145.801 32.28 146.462 32.44 147.294 32.44C148.275 32.44 148.979 32.2267 149.406 31.8C149.833 31.352 150.099 30.744 150.206 29.976C150.313 29.208 150.366 28.312 150.366 27.288V25.368H153.79V27.288C153.79 28.8667 153.598 30.264 153.214 31.48C152.83 32.6747 152.169 33.6133 151.23 34.296C150.291 34.9573 148.969 35.288 147.262 35.288ZM157.235 35V9.08H160.851V20.28H167.507V9.08H171.123V35H167.507V22.872H160.851V35H157.235Z" fill="white"/>
<path fill-rule="evenodd" clip-rule="evenodd" d="M27.2132 10.2426L38.1838 21.2132L27.2132 32.1838L29.3345 34.3051L40.3051 23.3345L42.4264 21.2132L40.3051 19.0919L29.3345 8.12128L27.2132 10.2426ZM25.2132 3.99996L23.0918 6.12128L21.2132 4.24262L4.24263 21.2132L21.2132 38.1837L23.0918 36.3051L25.2132 38.4264L23.3345 40.3051L21.2132 42.4264L19.0919 40.3051L2.12131 23.3345L-1.34043e-05 21.2132L2.12131 19.0919L19.0919 2.12131L21.2132 -1.71133e-05L23.3345 2.12131L25.2132 3.99996Z" fill="#666666"/>
<path d="M31.2131 40.3051L12.1213 21.2132L31.2131 2.12131L50.305 21.2132L31.2131 40.3051Z" stroke="white" stroke-width="3"/>
</svg>
